HIERARCHY
ROOT Hips
{
    OFFSET   0.000000   0.000000   0.000000
    CHANNELS 6 Xposition Yposition Zposition Zrotation Xrotation Yrotation
    JOINT Chest
    {
        OFFSET   0.000000   8.007230   0.000000
        CHANNELS 3 Zrotation Xrotation Yrotation
        JOINT Chest2
        {
            OFFSET   0.000000  22.077100   0.000000
            CHANNELS 3 Zrotation Xrotation Yrotation
            JOINT Neck
            {
                OFFSET   0.000000  23.254700   0.000000
                CHANNELS 3 Zrotation Xrotation Yrotation
                JOINT Head
                {
                    OFFSET   0.000010  14.370000   1.956610
                    CHANNELS 3 Zrotation Xrotation Yrotation
                    End Site
                    {
                        OFFSET   0.000000  19.566000   0.000000
                    }
                }
            }
            JOINT LeftCollar
            {
                OFFSET   3.911900  19.017000  -0.467063
                CHANNELS 3 Zrotation Xrotation Yrotation
                JOINT LeftShoulder
                {
                    OFFSET  10.383700   0.000000   0.000000
                    CHANNELS 3 Zrotation Xrotation Yrotation
                    JOINT LeftElbow
                    {
                        OFFSET  26.662100   0.001671   0.000522
                        CHANNELS 3 Zrotation Xrotation Yrotation
                        JOINT LeftWrist
                        {
                            OFFSET  28.869000   0.000037  -0.000114
                            CHANNELS 3 Zrotation Xrotation Yrotation
                            JOINT LeftFinger0
                            {
                                OFFSET   2.044650  -2.323450   3.252850
                                CHANNELS 3 Zrotation Xrotation Yrotation
                                JOINT LeftFinger01
                                {
                                    OFFSET   3.088140   0.000000   0.000000
                                    CHANNELS 3 Zrotation Xrotation Yrotation
                                    JOINT LeftFinger02
                                    {
                                        OFFSET   2.639460   0.000000   0.000000
                                        CHANNELS 3 Zrotation Xrotation Yrotation
                                        End Site
                                        {
                                            OFFSET   2.582190   0.000000   0.000000
                                        }
                                    }
                                }
                            }
                            JOINT LeftFinger1
                            {
                                OFFSET   8.364480   0.000000   3.252850
                                CHANNELS 3 Zrotation Xrotation Yrotation
                                JOINT LeftFinger11
                                {
                                    OFFSET   4.646930   0.000000   0.000000
                                    CHANNELS 3 Zrotation Xrotation Yrotation
                                    JOINT LeftFinger12
                                    {
                                        OFFSET   2.323470   0.000000   0.000000
                                        CHANNELS 3 Zrotation Xrotation Yrotation
                                        End Site
                                        {
                                            OFFSET   2.273050   0.000000   0.000000
                                        }
                                    }
                                }
                            }
                            JOINT LeftFinger2
                            {
                                OFFSET   8.364490   0.000016   1.078090
                                CHANNELS 3 Zrotation Xrotation Yrotation
                                JOINT LeftFinger21
                                {
                                    OFFSET   5.111620   0.000000   0.000000
                                    CHANNELS 3 Zrotation Xrotation Yrotation
                                    JOINT LeftFinger22
                                    {
                                        OFFSET   2.788150   0.000013   0.000000
                                        CHANNELS 3 Zrotation Xrotation Yrotation
                                        End Site
                                        {
                                            OFFSET   2.727660   0.000000   0.000000
                                        }
                                    }
                                }
                            }
                            JOINT LeftFinger3
                            {
                                OFFSET   7.899780   0.000016  -1.078090
                                CHANNELS 3 Zrotation Xrotation Yrotation
                                JOINT LeftFinger31
                                {
                                    OFFSET   4.646930   0.000000   0.000000
                                    CHANNELS 3 Zrotation Xrotation Yrotation
                                    JOINT LeftFinger32
                                    {
                                        OFFSET   2.323470   0.000000   0.000000
                                        CHANNELS 3 Zrotation Xrotation Yrotation
                                        End Site
                                        {
                                            OFFSET   2.273050   0.000000   0.000000
                                        }
                                    }
                                }
                            }
                            JOINT LeftFinger4
                            {
                                OFFSET   7.435080   0.000000  -3.252850
                                CHANNELS 3 Zrotation Xrotation Yrotation
                                JOINT LeftFinger41
                                {
                                    OFFSET   3.717550   0.000000   0.000000
                                    CHANNELS 3 Zrotation Xrotation Yrotation
                                    JOINT LeftFinger42
                                    {
                                        OFFSET   1.858760   0.000000   0.000000
                                        CHANNELS 3 Zrotation Xrotation Yrotation
                                        End Site
                                        {
                                            OFFSET   1.818440   0.000000   0.000000
                                        }
                                    }
                                }
                            }
                        }
                    }
                }
            }
            JOINT RightCollar
            {
                OFFSET  -3.911900  19.017000  -0.467064
                CHANNELS 3 Zrotation Xrotation Yrotation
                JOINT RightShoulder
                {
                    OFFSET -10.383700   0.000000   0.000000
                    CHANNELS 3 Zrotation Xrotation Yrotation
                    JOINT RightElbow
                    {
                        OFFSET -26.662100   0.001633   0.000260
                        CHANNELS 3 Zrotation Xrotation Yrotation
                        JOINT RightWrist
                        {
                            OFFSET -28.869000  -0.000045  -0.000080
                            CHANNELS 3 Zrotation Xrotation Yrotation
                            JOINT RightFinger0
                            {
                                OFFSET  -2.044660  -2.323490   3.252850
                                CHANNELS 3 Zrotation Xrotation Yrotation
                                JOINT RightFinger01
                                {
                                    OFFSET  -3.088140   0.000000   0.000000
                                    CHANNELS 3 Zrotation Xrotation Yrotation
                                    JOINT RightFinger02
                                    {
                                        OFFSET  -2.639450   0.000000   0.000000
                                        CHANNELS 3 Zrotation Xrotation Yrotation
                                        End Site
                                        {
                                            OFFSET  -2.582190   0.000000   0.000000
                                        }
                                    }
                                }
                            }
                            JOINT RightFinger1
                            {
                                OFFSET  -8.364480   0.000000   3.252850
                                CHANNELS 3 Zrotation Xrotation Yrotation
                                JOINT RightFinger11
                                {
                                    OFFSET  -4.646920   0.000000   0.000000
                                    CHANNELS 3 Zrotation Xrotation Yrotation
                                    JOINT RightFinger12
                                    {
                                        OFFSET  -2.323470   0.000000   0.000000
                                        CHANNELS 3 Zrotation Xrotation Yrotation
                                        End Site
                                        {
                                            OFFSET  -2.273050   0.000000   0.000000
                                        }
                                    }
                                }
                            }
                            JOINT RightFinger2
                            {
                                OFFSET  -8.364480   0.000000   1.078090
                                CHANNELS 3 Zrotation Xrotation Yrotation
                                JOINT RightFinger21
                                {
                                    OFFSET  -5.111610   0.000000   0.000000
                                    CHANNELS 3 Zrotation Xrotation Yrotation
                                    JOINT RightFinger22
                                    {
                                        OFFSET  -2.788160   0.000000   0.000000
                                        CHANNELS 3 Zrotation Xrotation Yrotation
                                        End Site
                                        {
                                            OFFSET  -2.727660   0.000000   0.000000
                                        }
                                    }
                                }
                            }
                            JOINT RightFinger3
                            {
                                OFFSET  -7.899780   0.000000  -1.078090
                                CHANNELS 3 Zrotation Xrotation Yrotation
                                JOINT RightFinger31
                                {
                                    OFFSET  -4.646930   0.000000   0.000000
                                    CHANNELS 3 Zrotation Xrotation Yrotation
                                    JOINT RightFinger32
                                    {
                                        OFFSET  -2.323470   0.000000   0.000000
                                        CHANNELS 3 Zrotation Xrotation Yrotation
                                        End Site
                                        {
                                            OFFSET  -2.273050   0.000000   0.000000
                                        }
                                    }
                                }
                            }
                            JOINT RightFinger4
                            {
                                OFFSET  -7.435090   0.000000  -3.252850
                                CHANNELS 3 Zrotation Xrotation Yrotation
                                JOINT RightFinger41
                                {
                                    OFFSET  -3.717550   0.000000   0.000000
                                    CHANNELS 3 Zrotation Xrotation Yrotation
                                    JOINT RightFinger42
                                    {
                                        OFFSET  -1.858760   0.000000   0.000000
                                        CHANNELS 3 Zrotation Xrotation Yrotation
                                        End Site
                                        {
                                            OFFSET  -1.818440   0.000000   0.000000
                                        }
                                    }
                                }
                            }
                        }
                    }
                }
            }
        }
    }
    JOINT LeftHip
    {
        OFFSET   9.782990   0.000000   0.000000
        CHANNELS 3 Zrotation Xrotation Yrotation
        JOINT LeftKnee
        {
            OFFSET  -0.000063 -41.789100   0.001657
            CHANNELS 3 Zrotation Xrotation Yrotation
            JOINT LeftAnkle
            {
                OFFSET   0.000078 -41.133200  -0.000113
                CHANNELS 3 Zrotation Xrotation Yrotation
                JOINT LeftToe
                {
                    OFFSET   0.000000  -6.358970  14.674500
                    CHANNELS 3 Zrotation Xrotation Yrotation
                    End Site
                    {
                        OFFSET   0.000000   0.000000   3.913200
                    }
                }
            }
        }
    }
    JOINT RightHip
    {
        OFFSET  -9.782990   0.000000   0.000000
        CHANNELS 3 Zrotation Xrotation Yrotation
        JOINT RightKnee
        {
            OFFSET   0.000053 -41.789200   0.000277
            CHANNELS 3 Zrotation Xrotation Yrotation
            JOINT RightAnkle
            {
                OFFSET   0.000030 -41.133200  -0.000150
                CHANNELS 3 Zrotation Xrotation Yrotation
                JOINT RightToe
                {
                    OFFSET   0.000000  -6.358960  14.674500
                    CHANNELS 3 Zrotation Xrotation Yrotation
                    End Site
                    {
                        OFFSET   0.000000   0.000000   3.913200
                    }
                }
            }
        }
    }
}
MOTION
Frames: 4
Frame Time:   0.016667
  0.241032  89.521500   1.323410  -2.283550  -6.295220  -0.415291   1.168910   3.464110   0.156299   2.334750   6.930660   0.242284   0.862039   0.733408  -0.002094   1.416920   1.485870   3.963980  -4.233420   0.947820  -0.316866 -74.799400  15.591700   1.782570  -2.990430  -5.452120 -13.530900  20.049900  -8.707100   3.970070  38.236100  35.188800 -61.608000 -36.162800  -0.002782  -0.000786 -13.070300  -0.002654   0.001013 -38.573200   4.124810  -5.151310 -31.712500  -0.001196  -0.007095 -22.203900  -0.003770  -0.008935 -33.458900  -3.125880   4.737820 -50.373700  -0.001485  -0.001381 -33.553900   0.001473  -0.006496 -32.615600  -3.056020   4.783560 -49.113700  -0.004235   0.000143 -32.709800   0.007429   0.002488 -41.085400  -3.744010   4.278690 -61.838300   0.002178   0.002766 -41.184300   0.003350   0.000000   7.450990   0.204737   5.320510  71.440100   4.407830  -7.442470  -0.976466  -5.514890  11.716900 -13.770700  -0.527914   1.761240 -34.740800  29.895000  65.122100  34.627100   0.001292  -0.002295  12.315500   0.002555  -0.001933  36.391800   9.791120  13.001400  30.689700  -0.002372  -0.000900  21.482800  -0.010089  -0.000349  32.301300   4.895590   7.694480  48.944600  -0.001124  -0.000454  32.597100  -0.002484   0.000268  30.894000   3.626720   6.044270  46.628000  -0.004600  -0.002714  31.054200  -0.003399  -0.001067  44.908600  -2.639840  -2.649060  67.454500  -0.005686  -0.002433  44.924700  -0.004098  -0.000383   3.498850   9.088430   3.694750   1.004160   0.086335   7.321280  -2.611600  -3.494680   0.499843  -0.000000   0.000000  -0.000000   1.676670   8.530690   2.212430   0.530554   1.521710  -8.055350  -0.277929  -4.811870  -4.292710  -0.000000   0.000000   0.000000
  0.237599  89.521500   1.323400  -2.287290  -6.298920  -0.417357   1.164770   3.464190   0.163545   2.326000   6.930880   0.257071   0.847448   0.745091  -0.002104   1.392960   1.509660   3.965960  -4.232080   0.954969  -0.323302 -74.809800  15.591600   1.793970  -3.001730  -5.454330 -13.539300  20.039200  -8.700630   3.958460  38.230700  35.191900 -61.610900 -36.162800  -0.002780  -0.000786 -13.070300  -0.002657   0.001013 -38.578200   4.124810  -5.151310 -31.716300  -0.001195  -0.007093 -22.203600  -0.003769  -0.008934 -33.458700  -3.125630   4.737820 -50.379100  -0.001484  -0.001380 -33.553600   0.001473  -0.006495 -32.615400  -3.055780   4.783560 -49.113300  -0.004234   0.000144 -32.709500   0.007429   0.002490 -41.091100  -3.744570   4.278690 -61.846700   0.002181   0.002767 -41.189900   0.003350   0.000000   7.451080   0.204579   5.302020  71.449300   4.429610  -7.442690  -0.976511  -5.515040  11.716600 -13.793700  -0.539324   1.761360 -34.728300  29.878900  65.116500  34.633000   0.001287  -0.002292  12.317400   0.002552  -0.001929  36.398400   9.791110  13.001600  30.689700  -0.002373  -0.000900  21.482700  -0.010090  -0.000349  32.306400   4.895590   7.694490  48.952300  -0.001123  -0.000454  32.602200  -0.002481   0.000269  30.899900   3.626720   6.044320  46.636900  -0.004599  -0.002713  31.060200  -0.003397  -0.001066  44.916400  -2.639850  -2.649070  67.466100  -0.005685  -0.002432  44.932500  -0.004097  -0.000383   3.503930   9.095650   3.694880   1.005390   0.081011   7.315070  -2.614420  -3.491140   0.503873  -0.000000   0.000000  -0.000000   1.682480   8.534110   2.212550   0.530674   1.524420  -8.050350  -0.285984  -4.811500  -4.297060  -0.000000   0.000000   0.000000
  0.231458  89.521500   1.323380  -2.294240  -6.305330  -0.423193   1.158210   3.464800   0.176987   2.312040   6.932440   0.284406   0.819738   0.767020  -0.002131   1.347460   1.554230   3.975200  -4.227940   0.969309  -0.329738 -74.833200  15.591500   1.812280  -3.021120  -5.456310 -13.557700  20.023600  -8.689850   3.941140  38.225400  35.195000 -61.613800 -36.162800  -0.002778  -0.000785 -13.070300  -0.002661   0.001010 -38.585700   4.124810  -5.151310 -31.722000  -0.001190  -0.007087 -22.203300  -0.003766  -0.008931 -33.458500  -3.125280   4.737810 -50.386300  -0.001483  -0.001378 -33.553300   0.001471  -0.006494 -32.615200  -3.055440   4.783560 -49.112900  -0.004231   0.000145 -32.709300   0.007430   0.002497 -41.099900  -3.745130   4.278690 -61.859800   0.002190   0.002771 -41.198600   0.003350  -0.000000   7.451210   0.204424   5.271430  71.461800   4.459870  -7.443020  -0.976555  -5.515190  11.716300 -13.819200  -0.550734   1.761520 -34.715900  29.862800  65.111000  34.640000   0.001280  -0.002284  12.320000   0.002546  -0.001923  36.404900   9.791080  13.001800  30.689700  -0.002375  -0.000899  21.482600  -0.010094  -0.000349  32.311400   4.895590   7.694510  48.960100  -0.001121  -0.000450  32.607400  -0.002474   0.000271  30.905700   3.626720   6.044410  46.645800  -0.004595  -0.002709  31.066100  -0.003393  -0.001065  44.924300  -2.639860  -2.649100  67.477800  -0.005680  -0.002428  44.940200  -0.004094  -0.000383   3.513360   9.111560   3.695180   1.007980   0.064981   7.308860  -2.618530  -3.483060   0.511206   0.000000   0.000000   0.000000   1.692880   8.540560   2.212690   0.530687   1.527150  -8.041360  -0.299195  -4.810890  -4.301410  -0.000000   0.000000   0.000000
  0.225795  89.521500   1.323450  -2.301530  -6.310840  -0.433265   1.153760   3.468040   0.191334   2.302240   6.939330   0.313376   0.791635   0.790093  -0.002177   1.301300   1.600880   3.992780  -4.220430   0.985546  -0.328958 -74.865800  15.596200   1.825470  -3.034950  -5.444100 -13.580600  20.016800  -8.680030   3.932610  38.219000  35.182700 -61.604500 -36.162800  -0.002782  -0.000786 -13.070300  -0.002649   0.000999 -38.587300   4.130800  -5.158660 -31.723600  -0.001182  -0.007077 -22.204800  -0.003759  -0.008928 -33.459500  -3.125160   4.732970 -50.387500  -0.001482  -0.001375 -33.554500   0.001469  -0.006491 -32.616200  -3.055320   4.778640 -49.114700  -0.004227   0.000147 -32.710400   0.007431   0.002508 -41.104300  -3.739540   4.274110 -61.865900   0.002205   0.002776 -41.202700   0.003351   0.000000   7.446050   0.204470   5.245780  71.466300   4.470110  -7.447010  -0.971466  -5.515110  11.718300 -13.821800  -0.550335   1.761600 -34.721200  29.878400  65.128100  34.641300   0.001278  -0.002266  12.321100   0.002537  -0.001921  36.404100   9.791050  13.002000  30.689600  -0.002370  -0.000895  21.482500  -0.010105  -0.000346  32.310000   4.895590   7.694540  48.957700  -0.001119  -0.000442  32.605900  -0.002464   0.000272  30.900900   3.626730   6.044560  46.638500  -0.004591  -0.002701  31.061200  -0.003386  -0.001064  44.919500  -2.639870  -2.649140  67.470700  -0.005672  -0.002423  44.935500  -0.004088  -0.000384   3.522520   9.139050   3.695650   1.009440   0.027486   7.309270  -2.619620  -3.468420   0.518866   0.000000   0.000000   0.000000   1.703560   8.547680   2.207120   0.530552   1.525080  -8.032410  -0.309513  -4.810290  -4.294950  -0.000000   0.000000  -0.000000
